:SAMPLES-PER-SECOND 30
:FULLY-SPECIFIED
:DEGREES
328
root  85.1295 40.144 0.741792 -16.9409 -86.7289 15.2505
RightUpLeg  -0.396991 -9.10178 -5.9623
RightLeg  8.39682 -3.14591 2.95332
RightFoot  -5.83857 -0.0363481 -0.0902338
RightToes  -4.65663e-010 0 -3.6325e-017
Spine  6.79217 0.975353 -0.684442
Spine1  -2.24949 0.74266 1.65374
HEad  20.5941 -6.19036 -0.108089
LeftShoulder1  0.154434 0.847914 3.05441
LeftArm  101.2 24.2566 -4.10931
LeftForeArm  105.088 -26.6523 -171.945
LeftHand  -0.244104 0.0205437 5.32207
RightShoulder  -0.101636 -4.68621 0.192026
RightArm  -27.9148 -7.13747 0.793156
RightForeArm  -4.77539 10.8813 2.55405
RightHand  -2.1812 6.82889 -20.819
LeftUpLeg  1.74652 4.02328 -0.946345
LeftLeg  5.59013 15.7963 -2.79843
LeftFoot  -7.11029 -0.05836 2.73836
LeftToes  -5.82109e-011 -4.83791e-012 -1.00937e-011
329
root  85.1184 40.143 0.78314 -16.0563 -86.7196 14.2426
RightUpLeg  -0.213689 -9.16625 -6.04253
RightLeg  8.36838 -3.12047 3.02985
RightFoot  -5.76748 -0.0429249 0.0316789
RightToes  -4.65663e-010 0 -3.6325e-017
Spine  6.9952 0.699322 -0.675307
Spine1  -2.21127 0.478676 1.5478
HEad  20.2429 -5.6904 0.195762
LeftShoulder1  0.108535 1.53715 3.41356
LeftArm  99.9375 25.4859 -4.32327
LeftForeArm  108.679 -22.3211 -173.138
LeftHand  -0.244104 0.0205437 5.32207
RightShoulder  -0.0868371 -4.50881 0.255917
RightArm  -27.8216 -7.28266 0.99807
RightForeArm  -5.12576 9.93121 2.35421
RightHand  -2.08513 6.38579 -20.651
LeftUpLeg  1.74852 4.15435 -0.978169
LeftLeg  5.98381 15.5522 -2.61431
LeftFoot  -7.3581 -0.0517655 2.76203
LeftToes  -5.82109e-011 -4.83791e-012 -1.00937e-011
330
root  85.0855 40.1407 0.83706 -15.8501 -86.8867 13.9538
RightUpLeg  -0.0638306 -9.1671 -6.09725
RightLeg  8.31977 -2.89861 3.06987
RightFoot  -5.78482 -0.0460974 0.107233
RightToes  -4.65663e-010 0 -3.6325e-017
Spine  7.18249 0.537711 -0.519524
Spine1  -2.25752 0.369417 1.24384
HEad  20.1781 -5.16018 0.610945
LeftShoulder1  0.0761625 2.0727 3.66512
LeftArm  100.306 27.0833 -4.85576
LeftForeArm  108.929 -18.8538 -173.888
LeftHand  -0.244104 0.0205437 5.32207
RightShoulder  -0.0652528 -4.24322 0.468282
RightArm  -27.7158 -7.59783 1.0104
RightForeArm  -5.51844 9.09038 2.16795
RightHand  -1.97265 5.92496 -20.3376
LeftUpLeg  1.85329 4.30096 -0.968797
LeftLeg  6.17391 15.5253 -2.58388
LeftFoot  -7.62846 -0.0436521 2.76382
LeftToes  -5.82109e-011 -4.83791e-012 -1.00937e-011
331
root  85.0288 40.1271 0.907792 -16.4555 -87.1153 14.4788
RightUpLeg  0.0965416 -9.28656 -6.24098
RightLeg  8.33244 -2.45581 3.14192
RightFoot  -5.9522 -0.0493424 0.190347
RightToes  -4.65663e-010 0 -3.6325e-017
Spine  7.20376 0.476939 -0.335234
Spine1  -2.11222 0.365895 0.918871
HEad  20.2095 -4.85944 0.96406
LeftShoulder1  0.0622762 2.35834 3.58164
LeftArm  103.152 28.8976 -5.8395
LeftForeArm  109.922 -16.7186 -174.346
LeftHand  -0.244104 0.0205437 5.32207
RightShoulder  -0.0522321 -4.07359 0.851828
RightArm  -27.897 -7.84991 0.928814
RightForeArm  -5.91617 8.39961 1.94529
RightHand  -1.88713 5.54951 -20.1314
LeftUpLeg  1.99527 4.38258 -1.03277
LeftLeg  6.35924 15.6451 -2.52217
LeftFoot  -7.94393 -0.0340643 2.76137
LeftToes  -5.82109e-011 -4.83791e-012 -1.00937e-011
332
root  84.9507 40.1016 1.00039 -17.3449 -87.3086 15.3262
RightUpLeg  0.0683523 -9.74656 -6.48978
RightLeg  8.76965 -1.84989 3.21913
RightFoot  -6.20447 -0.0674393 0.564309
RightToes  -4.65663e-010 0 -3.6325e-017
Spine  7.01425 0.35874 -0.00340325
Spine1  -1.7389 0.344921 0.390891
HEad  20.2958 -4.67563 1.30659
LeftShoulder1  0.0507232 2.63375 3.20455
LeftArm  105.454 30.4739 -7.44573
LeftForeArm  109.88 -16.2682 -174.436
LeftHand  -0.244104 0.0205437 5.32207
RightShoulder  -0.0440815 -3.95835 1.45928
RightArm  -28.4712 -8.02878 1.15131
RightForeArm  -7.51263 8.19947 1.82963
RightHand  -1.96729 5.65286 -20.7591
LeftUpLeg  2.12624 4.44609 -1.14054
LeftLeg  6.54728 15.7214 -2.4421
LeftFoot  -8.37569 -0.0169522 2.59927
LeftToes  -5.82109e-011 -4.83791e-012 -1.00937e-011
333
root  84.8687 40.0602 1.1013 -18.9764 -87.5848 17.0318
RightUpLeg  -0.524563 -10.7207 -6.65241
RightLeg  10.0474 -0.76091 3.05507
RightFoot  -6.67498 -0.0998257 1.34549
RightToes  -4.65663e-010 0 -3.6325e-017
Spine  6.78584 0.213273 0.469516
Spine1  -1.43929 0.34305 -0.403575
HEad  20.517 -4.59093 1.69799
LeftShoulder1  0.0324956 3.01197 2.51225
LeftArm  99.5234 31.2 -10.1587
LeftForeArm  100.885 -17.1696 -174.095
LeftHand  -0.244104 0.0205437 5.32207
RightShoulder  -0.0243318 -3.73619 2.33
RightArm  -29.0106 -8.50193 1.91857
RightForeArm  -11.2473 9.12274 2.13005
RightHand  -2.33341 6.60552 -22.5868
LeftUpLeg  2.18892 4.71099 -1.09926
LeftLeg  6.69095 15.6446 -2.61886
LeftFoot  -8.98006 0.00974663 2.14067
LeftToes  -5.82109e-011 -4.83791e-012 -1.00937e-011
334
root  84.809 39.9864 1.19365 -27.6049 -88.1375 25.8248
RightUpLeg  -1.96689 -12.5672 -6.58192
RightLeg  12.4695 1.5034 2.43798
RightFoot  -7.4792 -0.131747 2.41355
RightToes  -4.65663e-010 0 -3.6325e-017
Spine  6.72344 0.217178 0.820587
Spine1  -1.267 0.482255 -1.2636
HEad  20.8127 -4.59268 2.02614
LeftShoulder1  0.015915 3.28079 1.05051
LeftArm  91.5788 31.5157 -13.3846
LeftForeArm  90.0465 -18.9572 -173.735
LeftHand  -0.244104 0.0205437 5.32207
RightShoulder  0.0282935 -3.27546 3.66716
RightArm  -29.1907 -9.45905 3.03633
RightForeArm  -15.9613 11.5208 2.95536
RightHand  -2.90829 8.04597 -25.0559
LeftUpLeg  2.10711 5.22805 -0.911635
LeftLeg  7.00396 15.6331 -3.12898
LeftFoot  -9.79004 0.0383095 1.51451
LeftToes  -5.82109e-011 -4.83791e-012 -1.00937e-011
335
root  84.7796 39.8627 1.27933 -58.9601 -88.675 57.2647
RightUpLeg  -4.32495 -14.4585 -6.45733
RightLeg  16.3362 3.84291 1.59812
RightFoot  -8.12788 -0.157805 3.66651
RightToes  -4.65663e-010 0 -3.6325e-017
Spine  7.02594 0.785764 0.485184
Spine1  -1.16686 1.05303 -1.57802
HEad  21.0407 -5.24193 1.97994
LeftShoulder1  0.133238 2.32683 -1.71127
LeftArm  67.3644 27.6861 -16.1253
LeftForeArm  56.6744 -29.2911 -168.018
LeftHand  -0.244104 0.0205437 5.32207
RightShoulder  0.0771021 -2.90274 6.0485
RightArm  -28.8037 -10.8971 3.64129
RightForeArm  -19.2493 15.2905 4.1118
RightHand  -3.39304 9.13074 -26.9771
LeftUpLeg  1.87099 5.73286 -0.904048
LeftLeg  7.83261 16.0613 -3.59594
LeftFoot  -10.8598 0.0611488 0.911587
LeftToes  -5.82109e-011 -4.83791e-012 -1.00937e-011
336
root  84.757 39.7014 1.36496 -109.878 -88.3598 108.062
RightUpLeg  -7.47401 -13.8657 -6.71352
RightLeg  21.7453 2.9736 1.00727
RightFoot  -7.6693 -0.217264 5.06681
RightToes  -4.65663e-010 0 -3.6325e-017
Spine  7.90055 2.2992 -0.914472
Spine1  -1.52086 2.32347 -0.720724
HEad  21.3944 -7.24459 1.40668
LeftShoulder1  0.626333 -1.0949 -5.89686
LeftArm  -1.98045 13.42 -15.5696
LeftForeArm  -21.4695 -75.6385 152.432
LeftHand  -0.244104 0.0205437 5.32207
RightShoulder  0.0770451 -3.09844 9.89258
RightArm  -27.2036 -12.8633 2.9199
RightForeArm  -19.8355 19.9927 5.25912
RightHand  -3.52754 9.42197 -27.4626
LeftUpLeg  1.5912 6.02876 -1.27511
LeftLeg  9.16198 16.9648 -3.636
LeftFoot  -12.1336 0.0752566 0.339788
LeftToes  -5.82109e-011 -4.83791e-012 -1.00937e-011
337
root  84.7069 39.593 1.45341 -135.949 -87.4354 133.91
RightUpLeg  -11.145 -12.8393 -6.88063
RightLeg  27.7139 0.642768 0.138413
RightFoot  -5.39378 -0.379527 6.57411
RightToes  -4.65663e-010 0 -3.6325e-017
Spine  8.76266 2.33367 -0.63668
Spine1  -1.27161 2.50383 -1.68068
HEad  21.3552 -6.84952 1.40887
LeftShoulder1  1.08713 -2.43651 -10.9893
LeftArm  -10.7124 13.9307 -9.58027
LeftForeArm  11.9436 -27.4631 -11.9078
LeftHand  -0.244104 0.0205437 5.32207
RightShoulder  0.435588 -1.42222 13.9949
RightArm  -25.9449 -13.9568 3.71413
RightForeArm  -16.612 23.9802 5.92891
RightHand  -3.2919 9.0268 -26.3677
LeftUpLeg  1.66174 6.17415 -1.61334
LeftLeg  9.95637 18.0652 -3.49049
LeftFoot  -13.0496 0.0780545 -0.033724
LeftToes  -5.82109e-011 -4.83791e-012 -1.00937e-011
338
root  84.6091 39.5477 1.52642 -150.09 -86.5605 147.92
RightUpLeg  -14.6328 -12.473 -6.55058
RightLeg  32.1018 -0.960952 -0.877809
RightFoot  -3.05227 -0.556492 7.4078
RightToes  -4.65663e-010 0 -3.6325e-017
Spine  9.15648 2.18495 -0.565005
Spine1  -0.253189 2.2998 -1.34851
HEad  20.964 -5.88998 0.975046
LeftShoulder1  1.5989 -3.29497 -16.9269
LeftArm  -18.9997 14.4392 -8.96764
LeftForeArm  5.90642 -23.2496 -4.6277
LeftHand  -0.244104 0.0205437 5.32207
RightShoulder  0.845305 0.106566 16.8754
RightArm  -24.8491 -14.2095 6.29335
RightForeArm  -10.492 26.7081 6.27314
RightHand  -2.77013 7.94936 -24.0682
LeftUpLeg  1.93613 6.27406 -1.67475
LeftLeg  10.1944 19.1627 -3.3572
LeftFoot  -13.5136 0.0810056 -0.00822972
LeftToes  -5.82109e-011 -4.83791e-012 -1.00937e-011
339
root  84.4571 39.5566 1.58578 -159.787 -85.9912 157.604
RightUpLeg  -17.3104 -12.6904 -5.80898
RightLeg  33.4542 -1.4102 -1.2453
RightFoot  -2.2182 -0.598143 7.29549
RightToes  -4.65663e-010 0 -3.6325e-017
Spine  9.32393 1.61228 -0.930941
Spine1  1.18067 1.35205 0.532183
HEad  20.315 -3.92303 -0.205468
LeftShoulder1  2.15567 -3.47211 -24.4533
LeftArm  -26.6046 13.9642 -8.54232
LeftForeArm  26.7782 -22.4482 -3.34919
LeftHand  -0.244104 0.0205437 5.32207
RightShoulder  1.31866 1.82051 18.1693
RightArm  -23.4486 -13.4533 10.6576
RightForeArm  -3.58739 27.6132 6.14616
RightHand  -2.19507 6.54322 -21.4271
LeftUpLeg  2.3637 6.22368 -1.50247
LeftLeg  9.95019 20.0984 -3.28254
LeftFoot  -13.6148 0.0872265 0.278616
LeftToes  -5.82109e-011 -4.83791e-012 -1.00937e-011
